<svg xmlns="http://www.w3.org/2000/svg" width="9.3mm" height="6.81mm" viewBox="0 0 26.35 19.3"><path d="M25.7,7.46a5.25,5.25,0,0,0-8.59-1.54c-.18.17-.34.34-.49.51A8.13,8.13,0,0,0,15.88,6a3.33,3.33,0,0,0-.82-.29,2.91,2.91,0,0,0-1.8.06l-.6.28a1.68,1.68,0,0,0-.37.21.39.39,0,0,0-.17.21,1.45,1.45,0,0,1-.39-.2,5.24,5.24,0,0,0-8.85,1.2A1.56,1.56,0,0,1,1.11,8v2.41H2.19a6.48,6.48,0,0,1,.38.85,5.25,5.25,0,0,0,10.33-.72q0-.35.06-.75a2.18,2.18,0,0,1,.45-1.38,1.18,1.18,0,0,1,1.52-.22,1.52,1.52,0,0,1,.54.84c.12.39.07.8.18,1.21a5.24,5.24,0,0,0,9.94,2.14,5,5,0,0,0,.68-2h1.19V8C26.18,8.05,26,8,25.7,7.46Zm-15,2.33h0A3,3,0,0,1,9.42,12.2l-.58.3a1.69,1.69,0,0,1-.28.12,2.89,2.89,0,0,1-.88.14,3,3,0,0,1-1.39-.35,3.41,3.41,0,0,1-1.17-1.1,2.91,2.91,0,0,1-.43-1.55,3,3,0,0,1,1-2.24A3.2,3.2,0,0,1,8.54,6.9a3,3,0,0,1,2,1.83A3.85,3.85,0,0,1,10.67,9.79ZM22.2,12.45a4,4,0,0,1-.76.25,2.51,2.51,0,0,1-.55.06,3,3,0,0,1-2.84-2,3.19,3.19,0,0,1,.59-2.93,3,3,0,0,1,2.25-1,3.1,3.1,0,0,1,.81.11l.4.15a2.87,2.87,0,0,1,1.21,1,3.22,3.22,0,0,1,.45,2.56A3,3,0,0,1,22.2,12.45Z" transform="translate(-1.11 -4.31)"/><path d="M21.69,21.15a2.89,2.89,0,0,1-2.43-.55,7.32,7.32,0,0,1-1.11-1.37,7.62,7.62,0,0,0-1.29-1.31.47.47,0,0,0-.12-.07A3.89,3.89,0,0,0,16,17.6a1.46,1.46,0,0,0-.51,0,3.43,3.43,0,0,0-1,.34,10.35,10.35,0,0,0-1.35-.37,2.33,2.33,0,0,0-1.15.31,6.66,6.66,0,0,0-1.82,1.73c-.21.25-.41.51-.61.76a3.37,3.37,0,0,0-.3.36.49.49,0,0,1-.1.16.68.68,0,0,1-.26.13,2.94,2.94,0,0,1-2.36-.09,2.67,2.67,0,0,1-1.3-1.8c-.93.85-.47,2.55.4,3.33A5.15,5.15,0,0,0,8.3,23.56a10.2,10.2,0,0,0,3-.22A10.09,10.09,0,0,0,12.73,23a10.31,10.31,0,0,0,1.61-.67c.22.25.7.31,1,.41a19.46,19.46,0,0,0,2.81.77,5.08,5.08,0,0,0,3-.16c1.91-.23,3.54-2.43,2.27-4.2C22.75,20.12,23,20.56,21.69,21.15Z" transform="translate(-1.11 -4.31)"/></svg>