<svg xmlns="http://www.w3.org/2000/svg" width="140.18mm" height="140.18mm" viewBox="0 0 397.35 397.35"><path d="M397.35,198.68c0,109.72-89,198.67-198.67,198.67h0C89,397.35,0,308.4,0,198.68H0C0,89,89,0,198.68,0h0C308.4,0,397.35,89,397.35,198.68Z" transform="translate(0)" fill="#131315"/><path d="M284.3,114.49H113.06a30.64,30.64,0,0,0-30.64,30.63V252.23a30.63,30.63,0,0,0,30.64,30.63H284.3a30.63,30.63,0,0,0,30.63-30.63V145.12A30.64,30.64,0,0,0,284.3,114.49Zm-58.12,91.58-47.61,23.79a8.26,8.26,0,0,1-12-7.38v-47.6a8.27,8.27,0,0,1,12-7.39l47.61,23.81A8.25,8.25,0,0,1,226.18,206.07Z" transform="translate(0)" fill="#fff"/></svg>