<svg xmlns="http://www.w3.org/2000/svg" width="140.18mm" height="140.18mm" viewBox="0 0 397.35 397.35"><path d="M397.35,198.68c0,109.72-89,198.67-198.67,198.67h0C89,397.35,0,308.4,0,198.68H0C0,89,89,0,198.68,0h0C308.4,0,397.35,89,397.35,198.68Z" transform="translate(0)" fill="#131315"/><path d="M252.58,94.46H144.77a50.32,50.32,0,0,0-50.31,50.31V252.58a50.32,50.32,0,0,0,50.31,50.31H252.58a50.32,50.32,0,0,0,50.31-50.31V144.77A50.32,50.32,0,0,0,252.58,94.46ZM284.92,249A36,36,0,0,1,249,284.92H148.37A36,36,0,0,1,112.43,249V148.37a36,36,0,0,1,35.94-35.94H249a36,36,0,0,1,35.93,35.94Z" transform="translate(0)" fill="#fff"/><path d="M198.78,144.77a53.91,53.91,0,1,0,53.9,53.91A53.92,53.92,0,0,0,198.78,144.77Zm0,89.84a35.94,35.94,0,1,1,35.93-35.93A36,36,0,0,1,198.78,234.61Z" transform="translate(0)" fill="#fff"/><circle cx="256.28" cy="141.18" r="10.78" fill="#fff"/></svg>