<svg xmlns="http://www.w3.org/2000/svg" width="140.18mm" height="140.18mm" viewBox="0 0 397.35 397.35"><path d="M397.35,198.68c0,109.72-89,198.67-198.67,198.67h0C89,397.35,0,308.4,0,198.68H0C0,89,89,0,198.68,0h0C308.4,0,397.35,89,397.35,198.68Z" fill="#131315"/><path d="M257.54,183.26l-3.31,26.58a8.86,8.86,0,0,1-8.78,7.78h-43V328.75q-6.82.62-13.8.62a153.39,153.39,0,0,1-30.36-3V217.62H125.14a5.54,5.54,0,0,1-5.52-5.54V178.83a5.54,5.54,0,0,1,5.52-5.54h33.11V123.41A55.31,55.31,0,0,1,213.44,68h38.64a5.55,5.55,0,0,1,5.51,5.54v33.26a5.54,5.54,0,0,1-5.51,5.54h-27.6a22.12,22.12,0,0,0-22.07,22.17v38.8h46.35A8.86,8.86,0,0,1,257.54,183.26Z" fill="#fff"/></svg>