<svg
              version="1.1"
              id="Layer_2"
              xmlns="http://www.w3.org/2000/svg"
              x="0px"
              y="0px"
              viewBox="0 0 42 42"
              className="h-[1rem] mr-2 ml-2 fill-txtbright"
            >
              <style type="text/css"></style>
              <polygon
                points="41,4.8 37.2,4.8 37.2,2.9 35.3,2.9 35.3,1 29.6,1 29.6,2.9 25.8,2.9 25.8,4.8 25.8,6.7 23.9,6.7
	23.9,12.4 21,12.4 19.8,12.4 18.1,12.4 18.1,6.7 16.2,6.7 16.2,4.8 16.2,2.9 12.3,2.9 12.3,1 6.7,1 6.7,2.9 4.8,2.9 4.8,4.8 1,4.8
	1,27.6 5.7,27.6 5.7,31.4 9.5,31.4 9.5,36.2 16.2,36.2 16.2,41 21,41 23.4,41 25.8,41 25.8,36.2 32.4,36.2 32.4,31.5 36.2,31.5
	36.2,27.7 41,27.7 "
              />
            </svg>
